<?xml version="1.0" encoding="iso-8859-1"?>
<!-- Generator: Adobe Illustrator 19.0.0, SVG Export Plug-In . SVG Version: 6.00 Build 0)  -->
<svg version="1.1" id="Layer_1" xmlns="http://www.w3.org/2000/svg" xmlns:xlink="http://www.w3.org/1999/xlink" x="0px" y="0px"
	 viewBox="0 0 285.939 285.939" style="enable-background:new 0 0 285.939 285.939;" xml:space="preserve">
<g>
	<g>
		<path style="fill:#F9BA48;" d="M173.649,183.601l-2.555-5.475h-28.125h-28.125l-2.555,5.475
			c-17.245,36.952-4.05,80.963,30.68,102.338l0,0l0,0C177.7,264.564,190.895,220.553,173.649,183.601z"/>
		<path style="fill:#333333;" d="M218.893,199.299l-5.888-47.081l-23.391-18.712c0.122-0.741,0.23-1.486,0.23-2.255
			c0-6.103-3.933-11.259-9.375-13.2v-9.15c14.719-11.527,23.438-29.278,23.438-47.963c0-33.6-27.338-60.938-60.938-60.938
			S82.032,27.338,82.032,60.939c0,18.689,8.719,36.436,23.438,47.963v9.15c-5.442,1.941-9.375,7.097-9.375,13.2
			c0,0.769,0.108,1.514,0.23,2.25l-23.391,18.712l-5.888,47.081l44.189-16.57c4.397,15.975,14.742,30.895,28.955,41.358l2.78,2.053
			l2.78-2.048c14.213-10.462,24.563-25.383,28.955-41.358L218.893,199.299z M175.782,150.001c0,2.583-2.1,4.688-4.688,4.688h-56.25
			c-2.588,0-4.688-2.105-4.688-4.688s2.1-4.688,4.688-4.688h56.25C173.682,145.314,175.782,147.418,175.782,150.001z
			 M110.157,168.751c0-2.583,2.1-4.688,4.688-4.688h56.25c2.587,0,4.688,2.105,4.688,4.688s-2.1,4.688-4.688,4.688h-56.25
			C112.257,173.439,110.157,171.334,110.157,168.751z M207.671,185.078l-24.52-9.197c1.242-2.1,2.006-4.519,2.006-7.13
			c0-3.614-1.411-6.881-3.656-9.375c2.25-2.494,3.656-5.761,3.656-9.375c0-2.517-0.717-4.847-1.88-6.895
			c0.609-0.384,1.167-0.834,1.706-1.308l19.2,15.361L207.671,185.078z M91.407,60.939c0-28.43,23.133-51.563,51.563-51.563
			s51.563,23.133,51.563,51.563c0,16.491-8.034,32.128-21.492,41.822l-1.945,1.402v13.027h-9.375V70.314h4.688
			c7.753,0,14.063-6.309,14.063-14.063s-6.309-14.063-14.063-14.063c-7.753,0-14.063,6.309-14.063,14.063v4.688h-18.75v-4.688
			c0-7.753-6.309-14.063-14.063-14.063s-14.063,6.309-14.063,14.063s6.309,14.063,14.063,14.063h4.688v46.875h-9.375v-13.027
			l-1.945-1.402C99.442,93.067,91.407,77.429,91.407,60.939z M133.595,117.189V70.314h18.75v46.875H133.595z M161.72,60.939v-4.688
			c0-2.583,2.1-4.688,4.688-4.688s4.688,2.105,4.688,4.688s-2.1,4.688-4.688,4.688H161.72z M124.22,60.939h-4.688
			c-2.588,0-4.688-2.105-4.688-4.688s2.1-4.688,4.688-4.688c2.588,0,4.688,2.105,4.688,4.688V60.939z M110.157,126.564h4.688h56.25
			h4.688c2.587,0,4.688,2.105,4.688,4.688s-2.1,4.688-4.688,4.688h-4.688h-56.25h-4.688c-2.588,0-4.688-2.105-4.688-4.688
			S107.57,126.564,110.157,126.564z M81.756,157.159l19.2-15.361c0.539,0.473,1.097,0.919,1.706,1.308
			c-1.163,2.048-1.88,4.378-1.88,6.895c0,3.614,1.411,6.881,3.656,9.375c-2.25,2.494-3.656,5.761-3.656,9.375
			c0,2.611,0.764,5.03,2.011,7.13l-24.52,9.197L81.756,157.159z M142.97,214.384c-10.378-8.456-18.141-19.617-22.013-31.57h44.03
			C161.11,194.771,153.348,205.932,142.97,214.384z"/>
		<rect x="194.532" y="215.626" style="fill:#333333;" width="9.375" height="51.563"/>
		<rect x="194.532" y="276.564" style="fill:#333333;" width="9.375" height="9.375"/>
		<rect x="213.282" y="210.939" style="fill:#333333;" width="9.375" height="42.188"/>
		<rect x="213.282" y="262.501" style="fill:#333333;" width="9.375" height="14.063"/>
		<rect x="82.032" y="215.626" style="fill:#333333;" width="9.375" height="60.938"/>
		<rect x="63.282" y="210.939" style="fill:#333333;" width="9.375" height="46.875"/>
		<rect x="63.282" y="267.189" style="fill:#333333;" width="9.375" height="9.375"/>
	</g>
</g>
<g>
</g>
<g>
</g>
<g>
</g>
<g>
</g>
<g>
</g>
<g>
</g>
<g>
</g>
<g>
</g>
<g>
</g>
<g>
</g>
<g>
</g>
<g>
</g>
<g>
</g>
<g>
</g>
<g>
</g>
</svg>
